<?xml version="1.0" encoding="UTF-8"?>
<svg version="1.1" xmlns="http://www.w3.org/2000/svg" width="478" height="258">
<path d="M0 0 C157.74 0 315.48 0 478 0 C478 85.14 478 170.28 478 258 C320.26 258 162.52 258 0 258 C0 172.86 0 87.72 0 0 Z " fill="#FCF5E2" transform="translate(0,0)"/>
<path d="M0 0 C3.3249149 2.06615171 6.23445396 4.46890792 8 8 C8.04361937 12.44045185 7.53524511 16.06827703 5.3125 19.9375 C3 22 3 22 -3 24 C-3 34.23 -3 44.46 -3 55 C-1.02 55 0.96 55 3 55 C5.37890625 56.49609375 5.37890625 56.49609375 7.5625 58.4375 C11.71241302 62.10177004 11.71241302 62.10177004 17 63 C19.973329 61.72516343 22.64678747 60.04148085 25.375 58.3125 C26.84096225 57.41246134 28.30710614 56.51271844 29.7734375 55.61328125 C30.48081055 55.1745166 31.18818359 54.73575195 31.91699219 54.28369141 C40.49068087 49 40.49068087 49 43 49 C42.9175 47.783125 42.835 46.56625 42.75 45.3125 C42.77219196 42.18343389 43.02632605 40.94844482 44.5 38.0625 C47.39082048 35.6775731 49.26544844 34.97728926 52.96484375 34.7421875 C56.80949115 35.22922537 58.56302257 37.14695326 61 40 C62.18529129 43.90448895 62.42422013 45.96301745 60.875 49.75 C59 52 59 52 56.41333008 53.0480957 C53.86578807 54.69949164 53.86578807 54.69949164 53.56039429 56.88973999 C53.4191795 59.43372694 53.43894763 61.93350796 53.51171875 64.48046875 C53.51879349 65.40845779 53.52586823 66.33644684 53.53315735 67.29255676 C53.56116057 70.2583558 53.62390967 73.22227108 53.6875 76.1875 C53.71257522 78.19723837 53.73538974 80.20700632 53.75585938 82.21679688 C53.81100673 87.14525776 53.89732003 92.07230946 54 97 C54.99 97.33 55.98 97.66 57 98 C57 98.66 57 99.32 57 100 C57.78375 100.268125 58.5675 100.53625 59.375 100.8125 C62 102 62 102 64 105 C64.66100598 109.04257341 64.91928345 113.20172043 63.01953125 116.91796875 C59.83125067 120.89105685 57.08570352 122.72795172 52.125 123.375 C48.06854321 122.88822519 46.11119887 121.6272346 43 119 C40.65756532 115.44596117 39.9863448 113.52599849 40.09765625 109.23828125 C39.74433527 106.19573679 39.23471177 105.21448711 36.94018555 103.11767578 C34.11059966 101.23679542 31.2301341 99.56902911 28.25 97.9375 C27.24710937 97.34517578 26.24421875 96.75285156 25.2109375 96.14257812 C20.09915507 92.94118123 20.09915507 92.94118123 14.32714844 92.22875977 C11.29418018 93.23391574 9.42488858 94.93884471 7 97 C3.05220601 99.7634558 2.12196422 100 -3 100 C-3 111.22 -3 122.44 -3 134 C-1.68 134.33 -0.36 134.66 1 135 C3.66383077 137.58983547 4.86047331 139.27136064 5.5625 142.9375 C4.77713832 147.21335806 3.18915605 149.08226148 0 152 C-3.4375 153.1875 -3.4375 153.1875 -7 153 C-11.22321581 150.60950048 -11.22321581 150.60950048 -13 148 C-13.2956543 145.97875977 -13.2956543 145.97875977 -13.44921875 143.75390625 C-14.10585869 140.49284791 -14.69923484 139.26093153 -17.2434082 137.05371094 C-20.26753956 135.16074718 -23.33734011 133.46348377 -26.5 131.8125 C-28.61479596 130.65273138 -30.72938143 129.49257885 -32.84375 128.33203125 C-34.39255859 127.50759521 -34.39255859 127.50759521 -35.97265625 126.66650391 C-39.7157034 124.60601682 -43.29513333 122.32677346 -46.86132812 119.9753418 C-48.93144013 118.80833873 -48.93144013 118.80833873 -51.09960938 119.24536133 C-53.20743338 120.03854054 -53.20743338 120.03854054 -55.875 121.5625 C-59.43036059 123.19796587 -61.1471477 123.70766675 -65 123 C-68.21537305 120.83656998 -71.24828475 118.5034305 -73 115 C-73.52137294 110.17089 -73.73402673 106.25833154 -71.25 102 C-67.17209899 98.3751991 -64.27908482 97.62688845 -58.88671875 97.7265625 C-56.34031799 98.09560609 -54.98406798 99.42642884 -53 101 C-49.11584669 100.59472214 -46.32137011 99.24934947 -42.98828125 97.27734375 C-42.06595703 96.73916016 -41.14363281 96.20097656 -40.19335938 95.64648438 C-39.24267578 95.08251953 -38.29199219 94.51855469 -37.3125 93.9375 C-35.41500033 92.81780997 -33.51536509 91.70172855 -31.61328125 90.58984375 C-30.77579346 90.09347412 -29.93830566 89.59710449 -29.07543945 89.08569336 C-27 88 -27 88 -25 88 C-25.495 86.824375 -25.495 86.824375 -26 85.625 C-27.7111525 79.4220722 -28.10776329 72.82705616 -25 67 C-25.71478516 66.73413086 -26.42957031 66.46826172 -27.16601562 66.19433594 C-30.07360398 64.96898082 -32.64403037 63.52102507 -35.34375 61.890625 C-36.34277344 61.30152344 -37.34179688 60.71242187 -38.37109375 60.10546875 C-40.46391828 58.86440552 -42.54987341 57.61168745 -44.62890625 56.34765625 C-45.62792969 55.76371094 -46.62695312 55.17976563 -47.65625 54.578125 C-48.56181641 54.03575195 -49.46738281 53.49337891 -50.40039062 52.93457031 C-52.98973375 51.70915386 -52.98973375 51.70915386 -55.61523438 52.81152344 C-56.79569336 53.39981934 -56.79569336 53.39981934 -58 54 C-62.38630799 54.5482885 -64.24489181 54.54170805 -67.875 51.9375 C-70.41733802 48.42309156 -71 46.32499429 -71 42 C-69.78392788 39.11982918 -68.69696456 37.54761501 -66.25 35.625 C-62.9712075 34.71422431 -60.29198995 35.3167568 -57 36 C-56.505 36.495 -56.505 36.495 -56 37 C-48.63034625 36.96929311 -43.13004524 32.91573656 -37 29.1875 C-34.89586556 27.93093561 -32.79169971 26.67442384 -30.6875 25.41796875 C-29.70394531 24.82677246 -28.72039062 24.23557617 -27.70703125 23.62646484 C-18.34253978 18 -18.34253978 18 -16 18 C-16.14179688 17.35933594 -16.28359375 16.71867187 -16.4296875 16.05859375 C-17.6054936 9.13784032 -17.6054936 9.13784032 -15.8359375 5.8125 C-11.49769363 0.68354173 -6.84531127 -1.36405654 0 0 Z " fill="#FCF5E1" transform="translate(243,51)"/>
<path d="M0 0 C0.62777344 0.7938208 1.25554687 1.5876416 1.90234375 2.40551758 C7.78223812 9.67805453 12.67526571 11.83440821 22 13 C22 24.22 22 35.44 22 47 C23.98 47.495 23.98 47.495 26 48 C28.66383077 50.58983547 29.86047331 52.27136064 30.5625 55.9375 C29.77713832 60.21335806 28.18915605 62.08226148 25 65 C21.5625 66.1875 21.5625 66.1875 18 66 C13.77678419 63.60950048 13.77678419 63.60950048 12 61 C11.7043457 58.97875977 11.7043457 58.97875977 11.55078125 56.75390625 C10.89414131 53.49284791 10.30076516 52.26093153 7.7565918 50.05371094 C4.73246044 48.16074718 1.66265989 46.46348377 -1.5 44.8125 C-3.61479596 43.65273138 -5.72938143 42.49257885 -7.84375 41.33203125 C-8.87628906 40.78240723 -9.90882813 40.2327832 -10.97265625 39.66650391 C-14.7157034 37.60601682 -18.29513333 35.32677346 -21.86132812 32.9753418 C-23.93144013 31.80833873 -23.93144013 31.80833873 -26.09960938 32.24536133 C-28.20743338 33.03854054 -28.20743338 33.03854054 -30.875 34.5625 C-34.43036059 36.19796587 -36.1471477 36.70766675 -40 36 C-43.21537305 33.83656998 -46.24828475 31.5034305 -48 28 C-48.52137294 23.17089 -48.73402673 19.25833154 -46.25 15 C-42.17209899 11.3751991 -39.27908482 10.62688845 -33.88671875 10.7265625 C-31.34031799 11.09560609 -29.98406798 12.42642884 -28 14 C-23.94417739 13.59533446 -20.98175406 12.07329982 -17.48046875 10.05859375 C-15.9480957 9.18364258 -15.9480957 9.18364258 -14.38476562 8.29101562 C-13.32966797 7.67935547 -12.27457031 7.06769531 -11.1875 6.4375 C-10.11306641 5.82197266 -9.03863281 5.20644531 -7.93164062 4.57226562 C-5.28412482 3.05435656 -2.64048144 1.53010236 0 0 Z " fill="#FCF5E1" transform="translate(218,138)"/>
<path d="M0 0 C3 2.625 3 2.625 5 6 C5.16062247 10.57774052 4.53057792 12.37419015 1.5625 15.875 C-1 18 -1 18 -3 19 C-3 32.86 -3 46.72 -3 61 C-2.01 61.33 -1.02 61.66 0 62 C0 62.66 0 63.32 0 64 C1.175625 64.4021875 1.175625 64.4021875 2.375 64.8125 C5 66 5 66 7 69 C7.66100598 73.04257341 7.91928345 77.20172043 6.01953125 80.91796875 C2.83125067 84.89105685 0.08570352 86.72795172 -4.875 87.375 C-8.93145679 86.88822519 -10.88880113 85.6272346 -14 83 C-16.34662345 79.4396058 -17.0147249 77.5262788 -16.89453125 73.23046875 C-17.24813099 70.17202414 -17.75081587 69.22036612 -20.09204102 67.14990234 C-22.95857276 65.31146249 -25.87099064 63.66627162 -28.875 62.0625 C-29.89464844 61.48693359 -30.91429687 60.91136719 -31.96484375 60.31835938 C-37.32138268 57.30215364 -37.32138268 57.30215364 -43 55 C-42.7834375 54.46632812 -42.566875 53.93265625 -42.34375 53.3828125 C-38.92873138 44.24447565 -39.04322118 36.90275235 -43 28 C-42.3915625 27.67128906 -41.783125 27.34257813 -41.15625 27.00390625 C-36.67437667 24.57183087 -32.20600841 22.12532335 -27.77734375 19.59765625 C-26.70033203 18.98458618 -26.70033203 18.98458618 -25.6015625 18.35913086 C-24.16853305 17.54189667 -22.73750668 16.72113918 -21.30859375 15.89672852 C-16.22177703 13 -16.22177703 13 -14 13 C-14.0825 11.783125 -14.165 10.56625 -14.25 9.3125 C-14.25592848 5.96883723 -14.02818788 5.0456838 -12.1875 2.0625 C-8.25451005 -1.64574767 -5.0422825 -1.30403858 0 0 Z " fill="#FCF4DF" transform="translate(300,87)"/>
<path d="M0 0 C5.79621853 2.53514761 9.60647066 7.30388673 12.77734375 12.63671875 C14.55563876 20.28338728 13.7062435 26.25921016 9.89453125 33.12890625 C7.7244104 36.32159713 5.5905041 38.13235851 2.40234375 40.32421875 C1.26732422 41.11505859 1.26732422 41.11505859 0.109375 41.921875 C-4.86471774 44.49864166 -10.14966682 44.02251002 -15.59765625 43.32421875 C-22.56020779 40.72575454 -26.87115815 35.42000844 -30.41015625 29.07421875 C-32.33391578 22.99918864 -32.71226732 17.15804688 -30.16015625 11.19921875 C-23.02711938 -0.8117368 -13.14803474 -3.42046618 0 0 Z " fill="#C35840" transform="translate(247.59765625,107.67578125)"/>
<path d="M0 0 C3.80567572 2.0947908 6.40387304 4.96097451 8 9 C8.33403245 13.78779839 7.66898085 17.15021351 4.6875 20.9375 C1.35897447 23.49194982 -0.68089375 24.76549222 -4.8125 25.5 C-9.353873 24.78762776 -11.90467228 22.29145042 -15 19 C-16.85110583 15.29778834 -16.46454795 11.04093083 -16 7 C-12.33197954 0.71196493 -7.1960708 -1.37002117 0 0 Z " fill="#C45B44" transform="translate(186,149)"/>
<path d="M0 0 C1.8871875 0.0309375 1.8871875 0.0309375 3.8125 0.0625 C3.8125 0.7225 3.8125 1.3825 3.8125 2.0625 C4.59625 2.330625 5.38 2.59875 6.1875 2.875 C8.8125 4.0625 8.8125 4.0625 10.8125 7.0625 C11.47350598 11.10507341 11.73178345 15.26422043 9.83203125 18.98046875 C6.64375067 22.95355685 3.89820352 24.79045172 -1.0625 25.4375 C-5.11895679 24.95072519 -7.07630113 23.6897346 -10.1875 21.0625 C-13.29480351 16.75236933 -13.61006625 13.28424204 -12.8359375 8.18359375 C-11.81276902 4.83672335 -9.91904263 3.14367534 -7.1875 1.0625 C-4.43671116 0.14557039 -2.82801087 -0.04636083 0 0 Z " fill="#C45B44" transform="translate(296.1875,148.9375)"/>
<path d="M0 0 C3.3249149 2.06615171 6.23445396 4.46890792 8 8 C8.0442316 12.50277673 7.56748767 16.0802786 5.1875 19.9375 C2.4385001 22.52941419 0.41044502 23.88991649 -3.40234375 24.1875 C-8.02355484 23.84571551 -10.38745218 23.50003903 -14.0625 20.5 C-16.61763103 16.66730345 -17.68933478 12.57179506 -17 8 C-13.23451478 1.32651629 -7.72343427 -1.539039 0 0 Z " fill="#C35A43" transform="translate(243,51)"/>
<path d="M0 0 C0 0.66 0 1.32 0 2 C0.8971875 2.37125 0.8971875 2.37125 1.8125 2.75 C4.41320743 4.23611853 5.54416577 5.37949839 7 8 C7.59393392 11.90299432 7.17095867 13.67707807 5.3125 17.1875 C2.20273517 20.96964642 -0.0908073 22.67503103 -4.9375 23.5 C-9.14073738 22.81375716 -11.02342115 20.97657885 -14 18 C-16.30996678 14.74504681 -16.40143766 11.93408903 -16 8 C-12.35143454 0.15558426 -8.02399394 -0.46292273 0 0 Z " fill="#F29A0D" transform="translate(243,117)"/>
<path d="M0 0 C3.99449676 1.08349822 5.11670028 3.02636904 7.16015625 6.5859375 C8.03899495 10.80436327 7.38681503 12.22190977 5.09765625 15.8984375 C2.16015625 18.5859375 2.16015625 18.5859375 -1.27734375 19.7734375 C-6.1627618 19.51631023 -7.46438782 18.04176143 -10.83984375 14.5859375 C-12.29132278 11.68297945 -12.212234 9.81331971 -11.83984375 6.5859375 C-8.7550496 1.21242511 -6.25758143 -0.43876197 0 0 Z " fill="#729476" transform="translate(240.83984375,184.4140625)"/>
<path d="M0 0 C3 2.625 3 2.625 5 6 C5.15331912 10.36959504 4.44488346 12.3663781 1.9375 15.9375 C-2.16292141 18.81651929 -4.05694371 18.7061509 -9 18 C-11.82258404 16.33539916 -12.70338439 15.03912398 -13.59765625 11.90625 C-14.30835207 7.76627436 -14.4108424 5.70430126 -12.25 2 C-8.21706619 -1.58483006 -5.05978705 -1.30856562 0 0 Z " fill="#729476" transform="translate(300,87)"/>
<path d="M0 0 C3 2 3 2 5 5 C5.37979374 8.2282468 5.03333217 10.92296642 4 14 C1.28189143 17.27771916 -0.30762904 17.8887261 -4.5 18.5625 C-8.98948597 17.84097547 -10.35102251 16.66182182 -13 13 C-14.12609115 9.05868098 -14.41447672 6.98165538 -12.8125 3.1875 C-8.95430478 -1.46894251 -5.80409322 -1.52739295 0 0 Z " fill="#729376" transform="translate(186,87)"/>
<path d="M0 0 C2.97 0.495 2.97 0.495 6 1 C6 11.23 6 21.46 6 32 C7.98 32 9.96 32 12 32 C12.33 32.66 12.66 33.32 13 34 C6.07 33.505 6.07 33.505 -1 33 C0.98 32.505 0.98 32.505 3 32 C3 21.77 3 11.54 3 1 C2.01 0.67 1.02 0.34 0 0 Z " fill="#F3C990" transform="translate(234,74)"/>
<path d="M0 0 C0.99 0 1.98 0 3 0 C3 11.22 3 22.44 3 34 C2.01 34 1.02 34 0 34 C0 22.78 0 11.56 0 0 Z " fill="#F8D595" transform="translate(237,151)"/>
<path d="M0 0 C0.33 0.66 0.66 1.32 1 2 C2.65303339 2.69978772 4.32250541 3.36106797 6 4 C7.67473841 4.88731403 9.33327104 5.80571821 10.9765625 6.75 C12.35328125 7.53890625 12.35328125 7.53890625 13.7578125 8.34375 C15.17707031 9.16359375 15.17707031 9.16359375 16.625 10 C18.05585938 10.81984375 18.05585938 10.81984375 19.515625 11.65625 C23.07097811 13.69932615 26.58711974 15.72474649 30 18 C29.67 18.66 29.34 19.32 29 20 C26.00112785 19.36804092 23.62342376 18.3853364 20.953125 16.890625 C20.19 16.46523437 19.426875 16.03984375 18.640625 15.6015625 C17.85171875 15.15554687 17.0628125 14.70953125 16.25 14.25 C15.4765625 13.81945312 14.703125 13.38890625 13.90625 12.9453125 C8.84276877 10.10772402 3.89284256 7.12216342 -1 4 C-0.67 2.68 -0.34 1.36 0 0 Z " fill="#F8D99E" transform="translate(190,98)"/>
<path d="M0 0 C0.66 1.32 1.32 2.64 2 4 C1.25314941 4.41362793 0.50629883 4.82725586 -0.26318359 5.25341797 C-3.03406067 6.79010903 -5.80323443 8.32981352 -8.57128906 9.87158203 C-9.76950796 10.53816022 -10.96839762 11.20353414 -12.16796875 11.86767578 C-13.89238672 12.82267216 -15.61419944 13.78236801 -17.3359375 14.7421875 C-18.37282715 15.3182373 -19.4097168 15.89428711 -20.47802734 16.48779297 C-23.0577423 17.89586771 -23.0577423 17.89586771 -25 20 C-25.99 20 -26.98 20 -28 20 C-28.33 19.01 -28.66 18.02 -29 17 C-28.3915625 16.67128906 -27.783125 16.34257813 -27.15625 16.00390625 C-22.67437667 13.57183087 -18.20600841 11.12532335 -13.77734375 8.59765625 C-13.05933594 8.18894287 -12.34132813 7.78022949 -11.6015625 7.35913086 C-10.16853305 6.54189667 -8.73750668 5.72113918 -7.30859375 4.89672852 C-2.22177703 2 -2.22177703 2 0 2 C0 1.34 0 0.68 0 0 Z " fill="#F8D99D" transform="translate(286,98)"/>
<path d="M0 0 C0.55042969 0.22945312 1.10085938 0.45890625 1.66796875 0.6953125 C-1.35426359 3.0745072 -4.47589102 4.97883191 -7.83984375 6.83984375 C-8.90976562 7.43474609 -9.9796875 8.02964844 -11.08203125 8.64257812 C-12.75265625 9.56586914 -12.75265625 9.56586914 -14.45703125 10.5078125 C-22.16403703 14.77581748 -29.81329368 19.10217434 -37.33203125 23.6953125 C-37.66203125 22.7053125 -37.99203125 21.7153125 -38.33203125 20.6953125 C-37.70337158 20.34339844 -37.07471191 19.99148437 -36.42700195 19.62890625 C-33.49794288 17.98715431 -30.57103036 16.34162334 -27.64453125 14.6953125 C-26.59483154 14.1060498 -25.54513184 13.51678711 -24.46362305 12.90966797 C-17.74060163 9.11612983 -11.17471854 5.18014 -4.7578125 0.890625 C-2.33203125 -0.3046875 -2.33203125 -0.3046875 0 0 Z " fill="#FBEAC8" transform="translate(284.33203125,167.3046875)"/>
<path d="M0 0 C0.66 1.32 1.32 2.64 2 4 C1.11699219 4.42410156 0.23398438 4.84820312 -0.67578125 5.28515625 C-13.70207528 11.35865367 -13.70207528 11.35865367 -25 20 C-25.66 18.35 -26.32 16.7 -27 15 C-26.3915625 14.67128906 -25.783125 14.34257812 -25.15625 14.00390625 C-16.7198382 9.4259122 -8.35806084 4.71910587 0 0 Z " fill="#F9D79D" transform="translate(218,138)"/>
<path d="M0 0 C7.59892518 3.53574668 14.77860849 7.73749348 22.00439453 11.96533203 C27.56438711 15.20524808 33.16178095 18.28350219 39 21 C38.34 21.99 37.68 22.98 37 24 C36.20416504 23.54149658 35.40833008 23.08299316 34.58837891 22.6105957 C31.58901392 20.88438165 28.58820154 19.16073664 25.58642578 17.4387207 C24.29613832 16.69785737 23.00640835 15.95602211 21.71728516 15.21313477 C14.25402735 10.91320807 6.773277 6.72332483 -1 3 C-0.67 2.01 -0.34 1.02 0 0 Z " fill="#FBEAC8" transform="translate(249,68)"/>
<path d="M0 0 C0 0.99 0 1.98 0 3 C-2.01269531 4.51464844 -2.01269531 4.51464844 -4.828125 6.109375 C-5.85679687 6.69976562 -6.88546875 7.29015625 -7.9453125 7.8984375 C-9.03585938 8.50945312 -10.12640625 9.12046875 -11.25 9.75 C-12.81621094 10.64332031 -12.81621094 10.64332031 -14.4140625 11.5546875 C-16.52702182 12.75985689 -18.64227143 13.96101948 -20.75976562 15.15820312 C-25.86603043 18.06067914 -30.93328386 21.02907223 -36 24 C-36.66 23.01 -37.32 22.02 -38 21 C-37.14019531 20.5875 -36.28039062 20.175 -35.39453125 19.75 C-28.0447155 16.15925032 -21.06212991 12.300596 -14.1328125 7.93359375 C-9.52771645 5.09129631 -4.78204925 2.52998197 0 0 Z " fill="#FBEAC8" transform="translate(227,68)"/>
<path d="M0 0 C4.18827358 1.2736203 7.75844796 2.84931154 11.51953125 5.08203125 C12.54240234 5.68466797 13.56527344 6.28730469 14.61914062 6.90820312 C15.67294922 7.53662109 16.72675781 8.16503906 17.8125 8.8125 C19.90183145 10.0490431 21.99166759 11.28473389 24.08203125 12.51953125 C25.07928223 13.10943848 26.0765332 13.6993457 27.10400391 14.30712891 C31.03342961 16.60409719 35.00538289 18.81875797 39 21 C38.34 21.99 37.68 22.98 37 24 C36.49895752 23.65026123 35.99791504 23.30052246 35.48168945 22.94018555 C28.94285795 18.46994666 22.12514283 14.6251518 15.1875 10.8125 C12.97116136 9.59255567 10.75625525 8.37000422 8.54296875 7.14453125 C7.0892688 6.34559448 7.0892688 6.34559448 5.60620117 5.53051758 C3.2607295 4.153116 1.13373984 2.681978 -1 1 C-0.67 0.67 -0.34 0.34 0 0 Z " fill="#FBE9C7" transform="translate(192,167)"/>
<path d="M0 0 C0.84820312 0.49628906 1.69640625 0.99257812 2.5703125 1.50390625 C10.89726472 6.33875635 19.34017032 10.78853268 28 15 C27.01 17.475 27.01 17.475 26 20 C25.52433594 19.67128906 25.04867188 19.34257812 24.55859375 19.00390625 C19.50804118 15.57176279 14.35275379 12.34029783 9.125 9.1875 C8.47072021 8.79054932 7.81644043 8.39359863 7.14233398 7.98461914 C4.45010419 6.37151345 1.98752525 4.99584175 -1 4 C-0.67 2.68 -0.34 1.36 0 0 Z " fill="#F9D89D" transform="translate(258,138)"/>
</svg>
